<svg width="35" height="28" viewBox="0 0 35 28" fill="none" xmlns="http://www.w3.org/2000/svg">
<path d="M35 0L33.9165 3.11111H31.1033L26.0371 21.7778H6.73021L0 4.66667H24.5175L23.695 7.77778H4.38667L8.66979 18.6667H23.8773L28.8823 0H35ZM12.3958 23.3333C11.1883 23.3333 10.2083 24.3787 10.2083 25.6667C10.2083 26.9562 11.1883 28 12.3958 28C13.6033 28 14.5833 26.9562 14.5833 25.6667C14.5833 24.3787 13.6033 23.3333 12.3958 23.3333ZM22.4583 12.4444L19.6875 23.3333C18.48 23.3333 17.5 24.3771 17.5 25.6667C17.5 26.9562 18.48 28 19.6875 28C20.895 28 21.875 26.9562 21.875 25.6667C21.875 24.3787 20.895 23.3333 19.6875 23.3333L22.4583 12.4444Z" fill="white"/>
</svg>
