<svg width="22" height="27" viewBox="0 0 18 23" fill="none" xmlns="http://www.w3.org/2000/svg">
<path d="M8.9953 0C4.03659 0 0 4.03659 0 8.9953C0 9.55986 0.0517511 10.1291 0.159958 10.6843C0.164663 10.7172 0.183481 10.816 0.221119 10.9854C0.357554 11.5923 0.559853 12.1898 0.823314 12.759C1.79247 15.0408 3.92368 18.5457 8.60011 22.3001C8.71772 22.3941 8.85886 22.4412 9 22.4412C9.14114 22.4412 9.28228 22.3941 9.3999 22.3001C14.0716 18.5457 16.2075 15.0408 17.1767 12.759C17.4401 12.1898 17.6424 11.597 17.7789 10.9854C17.8165 10.816 17.8353 10.7172 17.84 10.6843C17.9435 10.1291 18 9.55986 18 8.9953C17.9906 4.03659 13.954 0 8.9953 0ZM16.5792 10.4631C16.5792 10.4726 16.5745 10.482 16.5745 10.4914C16.5698 10.5149 16.5557 10.5855 16.5322 10.6937C16.5322 10.6984 16.5322 10.6984 16.5322 10.7031C16.4145 11.23 16.2405 11.7428 16.0099 12.2368C16.0052 12.2415 16.0052 12.2509 16.0005 12.2556C15.1208 14.3398 13.1918 17.5201 8.9953 20.9875C4.79875 17.5201 2.86984 14.3398 1.99007 12.2556C1.98536 12.2509 1.98536 12.2415 1.98066 12.2368C1.75484 11.7475 1.58076 11.23 1.45844 10.7031C1.45844 10.6984 1.45844 10.6984 1.45844 10.6937C1.43021 10.5855 1.42081 10.5149 1.4161 10.4914C1.4161 10.482 1.4114 10.4726 1.4114 10.4584C1.3173 9.97387 1.27026 9.48458 1.27026 8.99059C1.27026 4.73288 4.73759 1.26555 8.9953 1.26555C13.253 1.26555 16.7203 4.73288 16.7203 8.99059C16.7203 9.48929 16.6733 9.98327 16.5792 10.4631Z" fill="black"/>
<path d="M8.99563 3.38257C5.84821 3.38257 3.28418 5.94661 3.28418 9.09402C3.28418 12.2414 5.84821 14.8055 8.99563 14.8055C12.143 14.8055 14.7071 12.2414 14.7071 9.09402C14.7071 5.94661 12.143 3.38257 8.99563 3.38257ZM8.99563 13.5352C6.5445 13.5352 4.55444 11.5404 4.55444 9.09402C4.55444 6.6476 6.54921 4.65283 8.99563 4.65283C11.442 4.65283 13.4368 6.6476 13.4368 9.09402C13.4368 11.5404 11.4467 13.5352 8.99563 13.5352Z" fill="black"/>
</svg>
